<svg version="1.0" xmlns="http://www.w3.org/2000/svg" width="32" height="48" viewBox="0 0 640 1640" fill="#333333"><path d="M146.2 1.5c-21 4.6-40.4 23-46.3 44-1.7 6.3-1.8 22.3 0 29.5.7 3 3.1 9.3 5.3 14 7.8 16.3 25 29.7 42.6 33.1 7.5 1.4 22 .7 28-1.4 2.3-.8 4.2-1.2 4.2-.8 0 .4-1.6 2.3-3.6 4.2-1.9 1.8-4.9 5.8-6.6 8.8-2.7 4.7-3.2 6.8-3.9 16-1.2 14.9-2.3 20.8-8 41.5-4.7 16.7-11.5 41.9-17.4 64.1-2.5 9.2-3.6 23.4-5.2 67.2l-.6 17.1-4.5 3.8c-5.9 4.9-12.9 14.6-14.3 19.7-1.1 4.2-5.6 9.3-13.2 15-4.4 3.3-4.7 5.8-1.2 10.9 1.4 2 2.5 3.9 2.5 4.2 0 .3-1.5.6-3.2.8-5.1.5-4.9 4.1.7 14.3l4.6 8.5-3.5 3.4c-4.2 3.9-4.8 8.2-1.6 11.1 1.6 1.4 2 3.1 2 7.7 0 5.5.2 5.9 3.3 7.8 1.7 1.1 4.9 2.3 7 2.6 2 .4 3.7.9 3.7 1.2 0 .7-9.2 15.3-18.6 29.5C84.9 499.7 68 530.1 66 537.9c-1.4 5.2-1.4 31.9 0 45.1.5 5.2 1.5 16.4 2 24.8 1.4 19.9 3.4 30.6 7 36.9 1.6 2.7 6.5 9.9 11 15.9 7 9.3 8.1 11.3 7.6 13.7-.3 1.6-4.2 11.3-8.6 21.5-8.9 20.4-8.7 19.6-11.6 51.2-1.7 19-3.3 26.4-15 66.8-7.4 25.8-9.1 29.8-15.2 36.5-5.1 5.3-7.7 5.9-12.2 2.5-2.4-1.7-3.2-1.9-4.5-.8-2.1 1.7-1.9 2.9 1.2 7.5 2.5 3.6 2.6 4.2 1.6 9-1.8 8.5-5 13.8-15 25.2-12.8 14.5-13 14.8-10.8 17.3 1 1.1 2.6 2 3.7 2 1 0 1.8.2 1.8.4 0 .1-2 3.4-4.5 7.2-2.5 3.7-4.5 7.3-4.5 7.9 0 2.1 3.6 4.5 6.7 4.5 3.8 0 8.3-4.7 19.3-20.3 4.1-5.8 7.9-10.6 8.4-10.7 1 0 .1 7.5-1.9 15.6-.8 3.2-3.6 9.9-6.1 14.8-5 9.8-4.9 10.6 1.7 10.6 5.3 0 8.2-3.5 12.9-15.8 2.3-5.9 4.5-11.6 5-12.7.5-1.2.6 3 .3 10.5-.6 13 .2 17 3.3 17 .8 0 1.9-1.2 2.5-2.8 1.8-4.5 4.9-20.8 5.8-30.1.8-9.2.8-9.1 10.5-22.8 4.8-6.7 6-10.6 7.6-26.1 1.6-14.4 4.3-21.2 34.9-89.6 6.2-13.7 11.5-26.2 11.8-27.9l.6-3 1.8 2.4c1 1.3 1.9 3.2 1.9 4.2 0 1.2 1.6 2.5 4.4 3.8 3.8 1.6 4.7 2.6 6 6.6.9 2.6 1.6 6.5 1.6 8.7 0 5.3 1.6 11.1 7.4 27.1 6.1 16.9 10.1 32.9 12.6 50.7 1.2 7.9 4.1 21.7 6.5 30.8 2.4 9.1 6 23.7 8 32.5s4.5 18.9 5.5 22.5c1 3.6 3.3 13 5.1 21 2.1 9.6 4.3 16.5 6.4 20.5 3 5.7 3.4 6 6.6 5.7 4.8-.3 40.8-6.9 55.5-10.1 6.8-1.5 12.4-2.4 12.4-1.9 0 .4 3.8 5.7 8.5 11.7 12.4 15.9 22.5 23.2 48.8 35 2.6 1.2 4.6 2.5 4.3 3-1.2 1.9 22.7 21.5 66.3 54.4 21.1 15.8 23.9 17.7 26.6 17.2 2.6-.4 3.7.1 7.1 3.7 2.3 2.4 6.2 7.1 8.9 10.6 4.2 5.6 4.6 6.7 3.7 8.7-1 2.1-.6 3.1 2.8 7.3 2.1 2.7 10.4 11.7 18.4 20 8 8.2 14.6 15.2 14.6 15.6 0 .3-1.1.6-2.4.6-1.3 0-3.2.3-4.1.6-1.4.6-1.4.9.1 3.3 1 1.4 3.5 4.4 5.7 6.6 4.5 4.5 8.3 12.3 9.3 18.8.4 2.3 1.4 5.5 2.4 7.2 1 1.6 2.5 6.2 3.3 10.2 1.8 7.9 4 12.7 12.9 28.1l6 10.2-.7 16.3c-.7 15.7-.6 16.3 1.5 18.9 1.2 1.5 1.9 3.2 1.6 3.7-.7 1 8.7 4.1 12.2 4.1 1.2 0 2.9-1.2 3.9-2.8 1.7-2.4 8.6-16.9 12.6-26.2l1.5-3.5-.5 5.3-.6 5.3 5.3 4.9c6.3 5.8 9.4 6.8 12.9 4.2 3.7-2.6 15.1-17 22.6-28.2 14.2-21.4 37.1-65.2 47.4-90.6 3.7-9.3 9.2-22.7 12-29.7 2.9-7 5-13.5 4.7-14.3-.3-.8-3.8-3-7.8-4.8-21.3-9.7-21.3-9.7-35.1-11.2-7.2-.7-16.3-1.4-20-1.4-10.2 0-19.3-4.7-22.1-11.3-2.5-6-29.4-39.3-35.9-44.4-1.4-1.1-6.7-6.9-11.9-13-5.1-6.1-12.3-14.4-16-18.5-3.8-4.2-6.8-8.2-6.8-9 0-1.6-18.4-22.8-31.7-36.4-4.9-5-11.4-10.7-14.4-12.7-8.8-5.6-49.6-25.7-51.7-25.4-1.2.1-6.9-4.7-16.6-14l-14.7-14.2 6.4-8.3c6.9-9.1 16.7-26.4 16.7-29.7 0-1.2-.7-2.1-1.5-2.1s-3.3-.7-5.5-1.6c-6-2.4-10.3-11.3-12-24.9-1.5-12.3-4.1-21-7.8-26.1-4-5.5-15.6-14.7-23.3-18.5-3.5-1.8-6.9-3.9-7.6-4.8-.6-.9-1.4-4.1-1.8-7.1-.9-7.1-2.5-10.9-6.8-15.6-7.1-8-7.5-11.5-1.7-14.4 2.2-1.1 4-2.6 4-3.3 0-2.9-4.1-8.9-12.6-18.7-4.9-5.6-11-13-13.5-16.4-5.1-6.8-5.8-7.2-24.4-13.6-7.3-2.5-12.1-3.7-12.3-3.1-.6 1.8-1.9 1.3-2.5-.9-.3-1.1-2-2.8-3.7-3.7-1.8-1-4.2-2.6-5.4-3.5l-2.1-1.6 2.9-3c2.3-2.5 2.9-4.3 3.7-10.7.5-4.5 1.5-8.5 2.4-9.5 1-1.2 1.5-3.8 1.5-8.8 0-7.1 0-7.2-4.1-10.9-2.3-2.1-4.9-5.4-6-7.4-1.8-3.7-6-6.2-10.9-6.5-4.6-.3-5-.4-5-1.5 0-.6 3.2-4.5 7.1-8.7 7.6-8.2 9.3-10.8 10.3-16.2.5-3.1 2.4-25.1 4.1-48 1.1-14.7-1.8-32.6-7-43-2.6-5.3-6-22.1-7.5-37.5-1.8-17.9-4.5-25.3-12.2-34.1-4.5-5.1-7.8-6.5-13.2-5.8-2.5.4-4.6.4-4.6 0 0-.3 2.3-4.3 5.1-8.7 2.8-4.5 5.8-10 6.6-12.3 4.1-11.1 3.4-31.3-1.3-39.3-5.9-10.1-12.3-15-25.9-19.7l-6-2.1.3-8c.3-5.4 2-14.3 5.3-27.2l4.9-19.1 1.5-50.4c1.7-58.7 2.4-74.5 3.6-81.1 1.1-5.9 4.3-10.6 14.7-21.9 6.8-7.3 8.1-9.3 8.6-13 4-29.8 3.9-42.7-.3-52.4-1.2-2.6-2.1-6.1-2.1-7.8 0-5.2-3.9-17.7-7.7-24.6-5.1-9.2-16.2-19.8-25.4-24.4-12.7-6.2-26.4-8-39.7-5.1zM177 729.4c0 .2-.8 1-1.7 1.7-1.6 1.3-1.7 1.2-.4-.4 1.3-1.6 2.1-2.1 2.1-1.3zm-4 3c0 .3-4.6 4.1-10.3 8.5-5.7 4.3-10.9 8.7-11.7 9.6-.7.9-2.3 2.1-3.4 2.7l-2.1 1.1 2-2.3c1.7-1.9 24.5-20 25.3-20 .1 0 .2.2.2.4zm260.5 290.9c10.8 9.7 20.2 17.4 20.9 17.1 1.6-.6 26 23.1 25.2 24.4-1.2 2 32.5 41.1 40.9 47.5l4.3 3.3-4.7 1.1c-5.3 1.2-4.5 1.9-19-16.3-9.7-12.2-28.1-31.1-30.8-31.6-2-.3-19.3-19.8-19.3-21.6 0-.6-1.7-2.5-3.8-4.4-2.1-1.8-9.6-9.6-16.7-17.3-7.1-7.7-14.9-16.2-17.4-18.9-6.8-7.3-1.5-2.9 20.4 16.7z"/></svg>