<svg version="1.0" xmlns="http://www.w3.org/2000/svg" width="1510.667" height="1706.667" viewBox="0 0 1133 1280" fill="#333333"><path d="M214.1 2.2c-.5 1.3-.7 2.7-.5 3.3.2.5.8 6.8 1.4 14 1.7 21 3.1 30.5 5.7 38.4 4.8 14.7 13.6 25.8 32.7 41.1l10.6 8.5-3.7 3.2c-5.9 5-16.8 10.9-28.3 15.2-24.1 9.1-35.8 10.6-72.5 9.7-38.5-.9-69.9-3.4-95-7.6-14.6-2.4-19.5-2.5-19.5-.6 0 3.5 19.3 7.2 60.1 11.6 15.4 1.6 28.1 3 28.4 3 .3 0 .5.4.5.9s-1.9 1.2-4.2 1.5c-2.4.4-11 1.8-19.3 3.1-25.5 4.1-58.6 13.9-88.3 26.3-16.1 6.7-23 10.8-21.3 12.5 1.4 1.4 3.1.8 39.6-12.3 52-18.7 54.1-19.2 103-25 39.3-4.6 62.1-8 98.1-14.6 10.4-1.9 22.1-3.5 25.9-3.7 8.6-.3 9 .6 4.6 10-6.2 13.1-16.9 26-32.1 38.6-12.4 10.3-14 12.7-8.2 12.7 9.9 0 31.2-21 44.7-44.1l5-8.4.7 14.5c.4 8 1.6 19 2.7 24.5 1.2 5.5 2.1 11.9 2.1 14.3 0 4-.3 4.5-6 8.9-3.3 2.5-6 5-6 5.4 0 1.9 4.3 1.9 8.7-.1 6.5-2.8 11.3-7.6 11.3-11.2 0-1.5-1.1-7.2-2.5-12.5-4.9-18.7-4.4-42.6 1.1-53.5 3-5.9 7.8-11.4 11.7-13.5 1.7-.8 8.6-2 16.2-2.7 7.9-.8 14.5-1.9 16.5-2.9 4.4-2.2 5-2.1 5 .6 0 4.1 3.1 11.6 6.1 14.9 2.7 2.8 3.2 3 4.6 1.6 1.4-1.5 1.3-2.2-.7-8.3-2.1-6.3-2.1-6.7-.4-8.6 2.1-2.4 8.2-2.5 17.2-.4 8.8 2.1 13.7 4.9 17.3 9.8 3.3 4.6 5.4 6.1 6.9 5.2 3.6-2.2-2.3-12.5-9.2-16.1-1.5-.8-6-2.1-10-2.9-10.2-2.2-10.8-2.4-10.8-4.5 0-2.4 5.4-7 13-11.1 6.7-3.6 7.8-4.9 10-12.8 2.3-8.3 4.2-9.3 20.9-10.5 7.7-.6 14.3-1.4 14.7-1.8.4-.4-1-1.5-3.2-2.4-6.1-2.5-23.6-1.5-33.5 1.9-16.5 5.8-17.4 1.5-1.9-9.3 5.8-4 9.6-7.7 8.8-8.5-.8-.8-7.5 1.8-18.3 7.2-5.5 2.8-12.2 5.8-15 6.7-5.3 1.8-8 3.8-13.4 10.1-4.5 5.3-10.8 9.5-14.1 9.5-3.7 0-14.1 3.3-22.3 7-3.7 1.6-7.2 3-7.9 3-.7 0-2.6-2.1-4.3-4.8-13.7-22.1-24.8-38.9-29.7-45.5C256.3 25.6 238.1 9.3 225.6 3c-7.2-3.6-10.4-3.8-11.5-.8zM452.3 150.1c-12.8 2.2-24.9 9.5-40 24.2C391 195 385 209.2 385 238.9c0 11.3.6 17.4 3.6 34.7 3.2 17.9 3.7 23.3 3.8 37.4.1 16.1 0 16.8-3.3 27.4-2.6 8.3-3.2 11.5-2.5 13.5 1.7 4.8 10.6 5.4 12.3.8 1.6-4.2 4.1-30.7 4.1-43 0-9.5-.8-16.7-3.6-32.2-6.6-37.5-5.8-55.8 3.3-74.5 4.1-8.5 5.8-10.7 15.7-20.5 6.6-6.5 13.4-12.2 16.6-14 4.9-2.6 6.5-3 14-3 7.4 0 9.1.3 13.5 2.8 6.9 3.8 24.2 18.5 35.2 29.9 14.8 15.5 18.1 24.3 17 46.4-1 18.7-5 45-10.8 70.7-1.6 7.1-4 19.7-5.4 28-1.4 8.4-3 16.7-3.6 18.4-2.2 6.8-16.8 16.5-28.8 19.3-12.1 2.8-32.7-.3-63.6-9.5-20.9-6.2-30-10-45.3-18.8-20.2-11.7-28.4-14.8-43.8-16.8-17-2.1-29 .9-32.6 8.1-2.5 4.9-2.3 13.9.3 19.5 1.2 2.4 5 7.2 8.5 10.5 10.7 10 25.7 16 58.4 23.5 8.2 1.9 12 3.4 12 4.7 0 1.5-13.7.8-24-1.2-16.4-3.1-17-1.1-3.7 12.2 6.8 6.8 12.1 13.5 19.2 24.3 5.4 8.3 12.8 18.8 16.4 23.5 6.1 7.9 32.7 35.7 81.6 85.2 22.6 22.9 23.2 23.9 21.6 33.8-1.4 7.9-3.4 12.9-10.5 26.5-8.5 16.2-27.6 48.3-34.2 57.5-17.5 24.5-37.8 63.9-42 81.5-2 8.8-1.9 26.1.4 30.5 2.5 5 5.4 5 12.5 0 7.5-5.2 11.8-7.4 19.2-9.5 7.9-2.2 11.1-4 16.3-8.7 5.5-5.1 7.7-5.8 19.7-6.5 10-.6 10-.6 13.5-4.4 1.9-2 6.8-5.8 10.7-8.3 8.5-5.3 12.6-10.5 15.3-19.2 2.3-7.6 4-22.9 4-36.8 0-18.4 2.5-33 7.6-45.4 3.4-8 5-8.1 10.8-.2 5.9 7.9 20.1 32 26.4 44.5 13.2 26.2 20.6 60.7 21.9 101 .6 21.1-.3 33.3-3.7 50-3 14.8-4 23.7-5.5 50.5-1.1 19.6-2 27.9-3.9 36-6.3 26.8-16.9 55.5-32.6 87.7-11.4 23.5-18.5 35.9-28.7 50-4 5.6-8.4 12.2-9.8 14.8-8.5 16.1-55.7 60.7-80 75.5-6.5 4-8.4 6.5-6.3 8.5 3.4 3.3 35.1 12.2 51.1 14.4 4.6.7 26.2 1.1 51.5 1.1 51.3.1 77.7 1.2 84.2 3.5 2.5.9 8.2 1.9 12.6 2.2 19.2 1.3 37.8-5.7 67-24.9 7.1-4.7 14.7-9.4 16.9-10.5 4.7-2.4 6.1-2.1 19 4.4 13.6 6.9 23.2 9.1 42.6 10 17.6.7 26.5-.3 55.9-6.3 11.8-2.4 23.1-4.4 25.1-4.4 7.2 0 13.2-2.9 21.5-10.2 10.4-9.3 12.9-10.8 16.9-10.1 6.2 1 11.2-3.4 13-11.4.7-3.6 4-6.4 9.5-8.2 7.1-2.3 9.6-4.6 10.9-9.7 2.4-9.5 9.5-19 17-22.9 2.6-1.3 8.8-3.5 14-4.9 12.8-3.5 13.7-4.2 14.6-11.3 1.2-10.1 4.6-14.2 16-20 9.1-4.6 12-7.3 16.2-15.8 5.4-10.6 8.1-13.4 19.9-20.5 13.3-8 20.4-14.4 20.5-18.6.1-6.3 2.1-9.8 7.3-12.4 2.7-1.4 5.8-3.7 6.9-5.2 1.7-2.3 1.8-3.2.9-6.8-.5-2.2-2.5-6.5-4.3-9.5-5.3-8.8-55.4-67.9-67.9-80-3.3-3.3-6.9-7.8-7.9-10s-4.6-6.7-8-10c-5.1-5-6.4-5.8-7.9-4.9-.9.6-4.5 7.8-7.9 16-8.3 20-17.2 37.5-29.6 58.5-29.4 49.8-62.6 94.6-82.8 111.9-3.5 3-10.9 9.6-16.4 14.6-15.9 14.4-15.9 13.3.1-3.6 11.8-12.6 29.4-35.5 45.4-59.5 12.2-18.2 47.8-78.2 54-91 3.2-6.6 9.5-19 14-27.5 19.8-38 21.7-43.8 36.9-116.5 10.3-49.1 11.1-54.6 11.1-74.1 0-57.3-20.3-127.1-50-171.5-11.2-16.8-31.7-43.3-56.6-72.9-23.2-27.9-70.4-70.2-103.5-93-4-2.8-7.6-5-8.1-5-1 0-4.3 6.5-5.9 11.8-.7 2.3-1.6 3.9-2 3.5-.5-.5-1.7-5.2-2.8-10.5-4.4-21-10.2-31.2-26.1-45.5-6.8-6.1-45.1-37.9-54-44.9-27.6-21.6-93.2-58.4-104-58.4-2.8 0-2.5 1.9 2 11.4 4.1 8.5 7.3 20.4 8.5 31.1l.7 6-7.7-15.5c-9.2-18.6-16.5-29.7-26.3-40.2-19.6-20.8-43.7-31.2-63.9-27.7zm225.3 140c4.9 2.5 10.9 8 12.9 12 3.9 7.5 2.6 16.2-3.1 20.6-3.3 2.4-3.7 2.5-7.7 1.4-7.2-2.2-15.7-7.3-19.7-11.9-4.3-4.8-8-11.7-8-14.8 0-3 4.1-6.4 10.2-8.5 5.9-2.1 9.1-1.9 15.4 1.2zM650.7 489c-.9 10.3-10.3 28.3-19.8 38-3.5 3.6-8.2 7-12.5 9.1-6.5 3.2-7.5 3.4-17.4 3.4-8.7 0-11.3-.4-15.2-2.2-4.8-2.2-6.1-4.6-3.2-5.7.9-.3 5.8-.6 11-.6 7.6 0 10.3-.4 13.6-2.1 5.9-3 19.3-16.8 28.2-28.9 14.8-20.4 16.3-21.4 15.3-11zm51.4 19.7c-2.9 23.5-15.2 42.7-33.2 51.7-12.7 6.4-14.6 4.4-3.6-3.7 4-3 9-7.2 11.1-9.3 5.5-5.8 11.8-19.5 19.3-42.4l6.8-20.5.3 8c.2 4.4-.2 11.7-.7 16.2zM638 620.5c0 3.9 5.6 24.5 9.5 35 5.9 15.8 12.5 29.7 22.2 47 10.4 18.6 14 26.4 15.5 33.8 1.3 6.3.8 8.4-2.6 9.7-2.5.9-2.9 1.8-4.1 9.5-.9 5.4-6.4 10.7-13.5 13-7.4 2.4-10.7 5-17.3 13.8-9.4 12.5-15.2 16.6-24.7 17.4-8.5.8-11.1-.9-15.9-11-2.2-4.5-4.5-10.5-5.2-13.2-.6-2.8-2.7-10.3-4.5-16.7-5.5-18.9-6.5-25.1-6.5-39.8 0-9.6.6-16.2 2-22.6 2-9.6 10.3-30.5 12.9-32.6 1.3-1.1 1.4-1 .9.7-4.4 13.9-6.2 33.7-4.8 52.2 2.9 37.4 10.9 66.6 19.3 70.9 5.7 2.9 12.8-1.7 18.7-12.1 3.4-6.1 9.3-11.5 15.9-14.9 10-5.1 15.8-14.8 15-25.3-.3-4.8-2.1-9.3-10.2-26.3-12.1-25.1-17.8-38.6-21.2-49.9-2.3-7.4-2.7-11-3.1-25.5-.4-12.3-.2-16.7.6-16.2.6.4 1.1 1.8 1.1 3.1z"/><path d="M366.6 923.2c-11.9 1.6-26.8 6.6-33.8 11.5-3.2 2.2-5.4 2.7-15.5 3.5-23.2 1.8-36.9 5.5-46.4 12.4-4.1 3-23 11.2-43 18.7l-6.6 2.5-7.4-2.9c-13.3-5.3-23.9-7.9-35.9-8.9-8.5-.7-13.8-1.8-20.5-4.1l-9-3.2-33-.8c-42-1-66.7-3.4-81.5-8.1-11.4-3.5-24.1-2.4-27.5 2.5-4.2 6 0 16.1 11.3 27.7 32.1 32.7 62.9 61.3 98.7 91.7 37.9 32.1 48.3 44.5 50 59.9 1.2 10.6 2.7 11.3 24.8 12.5 31.5 1.6 32.7 1.8 56.3 9.9 16.6 5.7 31.9 9.6 42.4 11 8.7 1 57.2-.5 60.8-2 2.8-1.2 2.9-5.2.2-9-1.1-1.6-6.1-6.1-11-10-22.9-18.3-41.3-44.1-45.6-64.1-1.5-6.9-1.5-7.9-.1-13 2.2-7.4 7.8-15.8 21.3-31.9 12.3-14.8 21-23.5 47.5-47.8 18.4-16.7 25.4-24.9 29.7-34.1 4.9-10.6 3-17.2-6.1-21.5-6-2.8-11.8-3.5-20.1-2.4zM252.2 1177.5c1.5 7.9 31 12.6 98.8 16 38.1 1.9 57.9 3.4 60.1 4.6 2.7 1.4 22.5 1.1 35.6-.6 24.2-3.2 43.3-8.7 44.1-12.8.7-3.6-5.2-3.3-32.8 1.9-10.3 1.9-16.7 1.6-50.6-2.7-28.7-3.5-41.8-3.6-85.7-.3-23.6 1.7-25.1 1.7-31 .1-8-2.3-26.7-6.2-33.5-7.2-4.8-.6-5.4-.5-5 1zM600.5 1194.6c-3.3.2-25.3 1.3-48.9 2.4-23.6 1.2-43.6 2.5-44.4 2.9-3.3 1.9 2.4 2.4 34.7 3.2 45.4 1.1 54.4 1.6 61.1 4 5.6 2 29 7.3 46 10.6 11.9 2.2 36.1 2.4 72.4.4 28.5-1.5 77.2-1 93.6.9 5.2.7 13.3 2.5 17.9 4.1 4.6 1.6 8.6 2.9 8.8 2.9.1 0 .3-1.1.3-2.4 0-5.2-9-9.2-27.5-12.4-21.2-3.7-35.5-4.3-88.5-4l-50.5.3-10-2.6c-5.5-1.5-15.6-4.2-22.5-6.1-12.9-3.7-27.3-5.1-42.5-4.2zM940 1198c-8 1.6-20 3.3-26.7 3.9-13.5 1.1-17.5 2.3-15.1 4.7 1.2 1.2 7.5 1.5 35.9 1.8 32.1.2 35.1.4 44.4 2.6 9 2.1 12.4 2.4 33.5 2.4 32.2.1 114.8-2.1 118.4-3.1 2.3-.7 2.6-1.1 1.4-2-2.2-1.9-18.1-6.2-32.6-8.8-17.5-3.3-29.5-3.2-46.7.1-29.3 5.6-41 5.4-73-1.1-9.3-1.9-18.8-3.4-21-3.4-2.2 0-10.5 1.4-18.5 2.9zM216 1197.2c0 3.3 19.3 13 33.5 16.8 8.8 2.4 28.3 4.5 59 6.5 41 2.6 54.3 4.4 74.5 9.6 19.4 5 23.7 5.2 93 4.3 73-1 85.9-.7 91.8 2.4 7.2 3.7 16.2 4.1 16.2.7 0-1.8-11.2-9.8-18.1-12.9-11.8-5.2-19.2-6.1-48.4-6-17.5 0-34.1.6-47 1.8-24.5 2.2-31.8 1.8-68-3.6l-27-4-55.5-.8c-65.8-.9-64-.6-93.5-13.4-6.5-2.8-10.5-3.3-10.5-1.4zM523.6 1257.9c-2.4 3.8 21.8 14.4 43.4 19.1 13.7 3 21.6 3.2 58 2 45.2-1.6 75.5-1.6 102.3 0 12 .7 22 1 22.3.7.8-.8-16.9-6.2-28.1-8.6-24.5-5.3-53.4-6-87.5-2.2-17.2 2-23.8 2.2-41 1.8-22.9-.6-28-1.4-49-8.2-16-5.1-19.6-6-20.4-4.6z"/></svg>