<svg version="1.0" xmlns="http://www.w3.org/2000/svg" width="1354" height="2560" viewBox="0 0 600 2100" fill="#333333"><path d="M60.8 1.7c-2.7 3.1-5.4 9.5-9.2 21.8-4.3 13.7-9.2 24.8-10.9 24.2-.6-.2-2.1-4.4-3.3-9.4-1.2-5-3.1-11-4.1-13.4-1.1-2.4-2.5-6.5-3.2-9-1.8-6.4-7.9-14.3-11.4-14.7-4.5-.5-5.4 3.1-3.3 12.9 1.9 8.7 6.2 22.6 9.5 30.2 1.2 2.7 2.1 6 2.1 7.5 0 1.4-2.4 7.8-5.4 14.1C15.3 79.4 13 89 13 102.2c0 8.2.3 9.9 2.6 13.8 4.3 7.6 7.9 30.3 12.4 79.5 4.4 47.6 8.6 71.4 17.3 97 7.8 22.8 12.1 31.2 20.1 39.5 7 7.2 9.1 10.8 14.2 24.3 6.1 16.1 14 28.8 30.2 49.1l10.3 12.8-.7 22.9c-.7 21.4-.6 22.9 1 22.9 2.9 0 17.6 8.1 23.8 13 8.6 7 13.1 13 22.3 30 13.5 24.8 16.2 31.6 18 45.4 2.7 20.8 6.2 31.3 13 39.4 1.8 2.1 2.4 3.8 2 5.2-1.2 3.9 1.6 25.5 6.9 52.3 3 14.9 6.9 35.2 8.7 45l3.3 17.7-2.8 5.8c-4.1 8.4-15.1 23.7-19.6 27.3-4.5 3.6-5.2 7.1-2.5 12.3 1.4 2.7 1.4 3-1.5 5.9-4.2 4.3-7.2 10.9-7.2 16.2-.1 3.6-.4 4.5-1.6 4-8.1-3.1-13.7-3.1-36.2.3-7.4 1.1-18.9 2.8-25.5 3.7-33 4.5-43.2 10.2-52 28.8-2.4 5.1-5.4 13.8-6.8 19.4-2.1 8.9-3.1 11.1-7.7 17.3-6.5 8.8-11.6 13-20.8 17.3-6.4 2.9-7.7 4.1-12.4 10.6-2.9 4.1-5.9 8.2-6.7 9.3-1.2 1.6-1.1 2.1.4 3.8 2.5 2.7 1.6 8.3-3 17.8l-3.6 7.7 2 1.7c1.2.9 2.7 1.8 3.3 2 .9.3.8 1.9-.6 5.9-3.8 11.6-3.1 34.5 1.5 49.6l2 6.5-4.9 17.6C1.9 1039-.5 1052.8.4 1068c1.6 27.1 2.4 33.7 4.7 38.1 3.5 7 7.7 12.7 15.2 20.6l7 7.4-1.2 9.2c-.6 5.1-3.5 18-6.3 28.7-4.9 18.6-5.1 20.1-5.2 33-.1 19.3 3.5 36.9 10.2 50 4.2 8 7.8 9.6 18.6 8.1 11.6-1.6 20.8-6.3 30.9-16 8.5-8 16.9-18.7 20.6-26 4.9-9.5 6.7-28.4 3.7-39.6-4.1-16-3.1-21.3 5.6-28.9 10.7-9.3 15.8-20.8 17.7-39.5 1.2-11.4 1-12.5-4.9-21.6-5.4-8.3-5.8-10.5-2.7-15.7 2-3.5 2.7-6.8 3.7-17.3 2.6-26.6 2.9-23.3-3.5-34-5.2-8.6-5.7-9.9-5.7-15.3 0-7.8 4.9-25 7.3-25.7 1.1-.4 3.1-3.9 5.1-8.8 1.8-4.4 5.1-12.2 7.3-17.2 5-11.2 6-11.5 16.5-4.8l7.5 4.8 10-.2c8.1-.1 18.2-1.8 52.5-8.7 52.4-10.5 57.2-11.3 74-12.6 21.7-1.8 34.4.1 49 7.4 4.9 2.4 18.5 10.7 30.4 18.5C397.1 980.8 404 984 438 994c39.1 11.5 41 12.1 42.3 14.9.9 1.9 2.5 2.9 5.9 3.8 2.6.6 5.2 1.4 5.8 1.8 1.8 1.1 1.1 4.4-1.4 6.1-4.5 2.9-11.2 28-10.2 37.5.6 5.3.5 5.8-1.9 7.7-2.9 2.3-5.3 1.9-15-2.3-3.1-1.4-7.4-2.5-9.8-2.5-8.2 0-20.1 5-23.5 9.7-6.1 8.8-9.3 28.2-7.5 45.5.9 8.8 1.7 11.8 5.7 20.7 8.2 18.1 8.1 23.2-.6 36-2.7 4-5.6 8.8-6.4 10.7-4.3 10.2 1.8 52.8 10.5 73.4 7.1 16.7 14.7 22.4 30.1 22.4 9.8 0 14.6-1.9 19.9-8 5.7-6.5 8.9-16.2 13.5-41.4 3.8-20.6 11.4-50.6 14.1-56.1 3.1-6 4.7-6.9 13-6.9 6.2 0 6.7-.2 10.8-3.9 9.2-8.5 28-36.6 48.6-72.6 17.6-30.6 22.2-37.8 27.8-43.1 6.2-5.9 6.3-6.5 3.2-20.4-2.3-10.8-2.2-12.9 2.2-33.2 1.6-7.5 2.9-15.9 2.9-18.8 0-4.5-.4-5.5-3.9-9.3-5.5-6.1-6.1-7.7-6.1-16.7 0-4.6-.6-9.5-1.4-11.4-.8-1.8-6-8.4-11.6-14.6-10.1-11.3-13-16-13-20.7 0-1.4 1.2-5.9 2.6-10 3.8-11.1 3.7-13.9-1-17.9-5.8-5-21-12.4-41.1-19.9-22.2-8.3-34-13.7-35.3-16.1-2.2-4.2-10.3-36.7-11.8-47.4-2.7-19.3-4.1-21-18.7-21.7-11.4-.6-15.5-2.7-22.5-11.5-7-8.9-7.5-10.2-7.9-20.1-.2-5.5-1-10.1-2-12-1.2-2.5-1.4-4.8-.9-12.1.5-6 .3-10.5-.6-13.9-1.1-4.3-1-5.4.6-9.5 1-2.6 2.7-7.2 3.8-10.2l2.1-5.5-2.3-15c-2.2-14.8-2.2-15.2-.6-30.5 4.9-45.2 12.5-82.1 19.3-94 7.3-12.6 19-24.8 36.3-37.7 7.4-5.5 14.6-11.4 16-13.2 2.3-2.9 3.1-3.3 9-3.8 10.9-.9 10.4.2 9.6-19.7-.4-9.4-.9-20-1.1-23.6l-.5-6.5 9.2-7.7c11.4-9.5 33-29.8 46.1-43.4 5.4-5.6 12.2-12.1 15.3-14.5 6.8-5.4 8.8-8.6 10.8-16.9.8-3.6 5.4-16.4 10.1-28.5 18-45.4 32.8-94.3 40-131.5 4.3-22.3 5.6-27.8 8.4-35.2 5.2-14 .6-44.7-9.2-61.8-2.9-5.1-3.1-6.2-2.9-14 0-4.8.8-10.4 1.7-13 .9-2.5 1.9-7.3 2.2-10.8.5-5.1.3-6.6-1.2-8.2-2.1-2.3-4.8-2.6-6.3-.8-1.3 1.7-8 25.1-8.8 31.1-.4 2.6-1 4.7-1.4 4.7-2 0-5-11.9-5-20 0-5.5.7-8.1 4.5-16.9 2.5-5.7 4.5-11.1 4.5-12-.1-2.1-1.9-4.5-4.8-6-3.9-2.1-7.4 2.7-14.2 19.4-1.8 4.4-3.7 8.4-4.1 8.9-2 2.2-.6-6.5 2.2-14.4 5.1-14 5-15-1.8-15-2.4 0-3.8.8-6.2 3.7-1.8 2.1-3.7 5.3-4.3 7-.7 1.8-1.5 3.3-1.8 3.3-.3 0-1-1.5-1.5-3.3-.8-2.5-1.6-3.3-3.8-3.5-3.7-.4-6.2 1.8-9.7 8.8-6.4 12.8-8.4 24.4-5.6 31.2.6 1.3.3 1.5-1.2 1.1-2.8-.7-6.2 1.4-6.2 3.8 0 1.1 1.8 3.9 4 6.3 4.3 4.7 5.6 7.7 10.1 23.4 4.3 15.3 6.2 18.6 16.2 28.2 9.2 8.8 11.7 12.3 11.7 16.2 0 5-11 36.3-21.1 60.4-12.8 30.2-46.1 93.9-60.2 114.8-5.8 8.8-25.5 28.6-28.1 28.4-1.2-.1-4.1 1.2-6.6 2.9-8.2 5.5-44.3 26.6-53.8 31.4-6.9 3.5-11.1 4.9-15.7 5.4-7.3.8-11.9 3.3-14.3 7.6-1.5 2.8-2 3-5.5 2.4-2.6-.4-6 .2-11.2 2-9.1 3-9.5 3-9.5.5 0-3.4-2.7-3.4-10.2-.1-3.9 1.7-7.5 3.1-7.9 3.1-1.5 0-1-4.5 2.2-17.7 3.8-16.1 4.1-22.2 1.2-28.8-1.2-2.8-2.7-8.1-3.3-11.7-1-5.6-2-7.9-6.6-14-3-4-5-7.4-4.4-7.6.5-.2 1-.7 1-1.2 0-1.2-12.9-11.5-18-14.4-3.2-1.8-4.5-3.2-4.5-4.7 0-1.9-1.1-2.6-6.2-4.3-4.4-1.4-6.3-2.5-6.5-3.8-.3-1.7-1-1.5-7.7 1.8-7.3 3.6-7.6 3.6-14.5 2.8-24.9-3.1-43.7 2.9-60.1 19.1-8.4 8.3-11.9 13.2-19 26.9-2.9 5.5-6.3 11.9-7.5 14.1l-2.3 4.1 2.4 3.7c1.3 2 2.9 3.5 3.6 3.3.8-.3 1.4 1.4 1.9 5 .4 3.3 1.1 5.4 1.9 5.4.8 0 1.6 3.2 2.5 9.1.9 6.7 1.5 8.9 2.5 8.5.8-.3 1.8.8 2.6 2.6 1.1 2.6 1 3.2-.5 4-3.3 1.8-3.6 7.7-1 16 1 3.3-2.1 1.9-8.6-3.7-3.6-3.1-8.6-6.7-11.1-8-2.6-1.3-6.2-4.3-8-6.6-1.9-2.5-8.1-7.3-14.8-11.7-6.3-4.1-12.9-8.9-14.6-10.8-1.8-1.9-4-3.4-4.8-3.4-.9 0-3.3-1.7-5.5-3.8-2.1-2-5.1-4.4-6.8-5.3-1.8-.9-4.1-3.7-5.9-7.1-1.5-3-4.1-6.2-5.5-7-1.5-.9-4.9-5.2-7.6-9.7-2.7-4.4-5.3-8.1-5.9-8.1-1.1 0-13.9-15.2-20.3-23.9-5.3-7.3-7.2-11.7-10.4-24-5.6-22.4-6-23.3-29.4-71.1-9.5-19.5-18.5-39-19.9-43.2-3.9-12-12.5-47.4-12.5-51.5.1-5.3 2.2-8.6 12.6-20.5 5-5.7 10.4-12.3 12-14.7l2.8-4.3-.2-25.6c-.1-20.7-.5-26.6-1.8-30.6-1.3-3.7-1.5-6.8-1-12.7.6-7.1.4-8.1-1.4-9.9-2.6-2.6-6.6-2.6-8 0-.6 1.2-1.7 6-2.5 10.8-.8 4.8-2.1 10.7-3 13.2-1.7 5.2-1.4 2.3.9-8.5 3.7-16.8.4-30.6-5.6-23.8z"/></svg>