<svg version="1.0" xmlns="http://www.w3.org/2000/svg" width="32" height="42.56" viewBox="0 0 1280 1320" fill="#333333"><path d="M653.5 1.1c-4.9.4-14.6 1.2-21.5 1.8-6.9.6-13.6 1.1-15 1.1-2.2 0-3.1 1.1-6.2 7.4-3.2 6.3-4.1 7.5-6.5 7.8-2.7.3-2.8.5-2.6 5 .3 4.5.1 4.8-3.1 6.3-1.8.9-4.3 2.6-5.4 3.8-2 2.2-2.1 2.5-.7 7.1 1.9 6.4 2 6.2-1.2 9.4l-2.8 2.7-.5-3c-.4-2.6-1-3-4.3-3.3-3.4-.3-4.4.2-7.7 3.7-4.8 5.1-7.3 13.5-4.5 15.5 1.7 1.2 1.5 1.9-3 9.7-2.7 4.6-6.4 11.2-8.2 14.6-3.7 6.8-3.6 6.8-11.5 2.7-2.7-1.4-5.3-1.6-16.3-1.1-17.9.8-27.7 3.9-35.3 11.1-7 6.6-9.2 18.3-5.7 30.1 2.1 7.3 5 10.6 13.5 15.1 3.6 1.9 7.4 4.1 8.5 5 2 1.5 2 1.5-.5 3.4-1.4 1.1-5.6 3.6-9.4 5.7-8.6 4.7-10.1 6.9-9.9 14.3.2 5.3-.1 6-3.3 9-3.6 3.6-4.1 5.7-2.3 11.1 1.8 5.3 5.6 9.7 11.6 13.6 5.2 3.3 5.5 3.7 5 6.8-.3 1.8-2.6 7-5.2 11.5-5.2 9.1-6.7 16-4.4 20.2 2.8 5.2 8.6 11.2 16.4 17.1 4.4 3.3 8.3 6.3 8.8 6.7.4.3-.2 3-1.4 5.9-1.8 4.3-2 5.6-1 7.7.8 1.8 1.8 2.4 3.2 2.2 1.7-.2 2.6-1.7 4.1-6.6 3.2-10.6 4.3-8.2 4.3 9.5 0 17.4 1.2 23.7 6.5 34.7 4.8 10.1 11.4 17 19.5 20.7 9.8 4.3 19.5 9.2 19.5 9.8 0 .2-1.7 2.5-3.7 5-9.3 11.4-22.4 23.6-42.8 39.9-12.1 9.7-26.2 21-31.4 25.2-13.3 10.6-25.8 22.3-32.9 30.7-3.3 4-9.1 9.5-12.8 12.4-9.6 7.2-23.2 18.9-41.7 35.7-20.9 19.1-34.4 34.5-38.3 43.8-.9 2.1-3.1 5.6-4.9 7.9-8.7 10.6-13.5 27.4-13.5 47.3v11.9l-8 .6c-11.5.9-32.7 5.9-47.6 11.3-7.1 2.5-20.7 8.6-30.3 13.5-9.6 4.9-23.3 11.3-30.5 14.1-22.9 9-59.6 29.1-72.6 39.8-2.5 2-7.6 5.4-11.5 7.5-11.3 6.2-30.1 19.1-41.9 28.9-13.2 10.8-41.2 35.4-44.2 38.7-3.1 3.4-27.8 40.2-36.6 54.4C20.6 840.4 9 864.7 5.6 876c-1.4 4.7-3.1 14.1-3.8 21-1.6 16-1.6 57.6 0 70 3.1 24 10.9 41.8 21.8 49.5 3.1 2.2 6.2 5.1 6.9 6.5 3 5.8 16.8 16.6 36.7 28.8 9.3 5.7 19.5 7.5 43.3 7.5 20.4.1 32.5-1.5 49.5-6.5 21-6.2 37.2-13.6 55.2-25.1 7.5-4.9 10.6-7.9 26.5-26.4 44.4-51.5 71-84.2 110.6-136.5 14.5-19.1 20.8-28.4 27.8-41 9.8-17.7 18.1-34.5 23.6-47.8 9.1-22.1 42.8-84.7 51-94.8 3-3.7 6.6-8.9 7.9-11.5 6.3-12.2 14.6-16.6 27.1-14.1 2.7.5 3.1 1.1 4.6 7.6 3.7 15.1 13.5 33.3 21.3 39.5 7.6 6 12.1 7.6 21.4 7.7 4.7.1 10.1-.1 12-.4 3.1-.4 3.5-.2 3.8 2 .5 4.1 4.9 24.2 9.7 44 2.5 10.2 5 21.7 5.6 25.6 1.3 9.2 3.5 12.6 9.7 15.4 5 2.3 5 2.3 4.5 6.4-2 16.1-21.5 53.7-34.6 66.7-3.8 3.7-4.7 5.3-5.6 10.3-2.8 15-.7 21.2 10.2 31 4 3.5 8.4 7.4 9.9 8.7l2.6 2.4-3.3 9.9c-1.8 5.4-6 15.1-9.3 21.5-8.1 15.7-9.8 21.8-8.2 28.8.6 2.9 2.6 7.7 4.4 10.6 4.6 7.8 16.4 20.6 21.1 22.9 16.7 8.6 57.4 40.2 71.6 55.7 6.2 6.8 10.9 14.5 9.6 15.8-.2.1-3.2-.9-6.8-2.3-3.5-1.4-9.3-2.8-12.9-3.1-5.7-.5-6.9-.2-9.2 1.7-1.6 1.2-2.8 3.1-2.8 4.4 0 3.3 2.4 9.7 5.3 14.3l2.5 4-6.9 6.9c-9.2 9.1-9.3 11.2-.9 18.6 3.3 2.9 6 5.8 6 6.4 0 .6-1.8 5-4.1 9.8-12 25.7-20.9 65.5-20.9 93 .1 16.3 2.3 25.9 7.6 32.3 2.2 2.5 4.2 5 4.5 5.5 1.2 1.9 16.9-4 26.6-10 10.7-6.7 32.6-25.3 44.2-37.8 25.4-27.1 49.3-59.6 60.5-82.2 4.2-8.3 5.2-8.4 8.1-.4 2.5 6.7 11.9 24.4 17.8 33.2 7.9 11.9 13.8 18.9 26.5 31.1l11.8 11.4 14.5 4.8c8 2.6 15.3 4.7 16.2 4.7 1 0 6.1-1 11.3-2.2l9.5-2.2 6.3-7.5c7.8-9.5 6.9-7.8 11.2-21.2 8-25.4 7.8-61.2-.6-128.3-4.2-33.2-12.1-63.9-21.5-84.1-5.3-11.3-9.3-16.8-14.5-19.7-2.2-1.3-4-3-4-3.9 0-2.2 4.3-7.8 14.6-19 16.7-18 22.1-24.4 31.1-37 54.7-76.2 74.6-117.4 80.3-165.7 2-17.6 2-17.8.2-35.7-1.7-16.5-2.4-19.5-7.6-36-6.2-19.5-6.2-19.4-17.2-27.6l-4.2-3.1.5-12.6c.4-9.6.1-14.8-1.1-21.2-2.1-10.3-6.2-19.6-8-18.1-1.8 1.5-14.9-2.4-22.1-6.7-16-9.4-26.7-26.2-30.6-48.2-2.2-12.6-1.6-36.8 1.5-57 9.8-63.7 7-94.5-12-133.3-5.3-10.8-9.9-18.5-16-26.7-4.8-6.3-9.5-13.3-10.5-15.5-1-2.2-2.7-4.6-3.8-5.2-1.1-.7-4.2-4.1-6.9-7.7-5.3-7.1-10.4-11.9-26.3-24.9-5.9-4.7-12.1-10.4-13.9-12.7-4.7-6-8.6-14.8-9.4-21.3l-.7-5.7 6.3-6.8c28.3-29.7 37.7-56.8 28.2-80.6-3-7.6-12.5-20.3-16.8-22.6-3.5-1.8-6.5-7.7-7.3-13.9-.3-2.7.2-11.5 1.1-19.7l1.7-14.9-6.5-12.4c-7.6-14.4-12.4-20.6-17.5-22.9-2-.9-6.6-4.4-10.2-7.7-3.7-3.3-8.9-7.3-11.7-8.8-6.6-3.6-17.9-6.4-28.9-7.2C707.5 6.1 700.6 5 697 4 683.8.2 672.4-.5 653.5 1.1zM504.8 572.2C491.4 602 488 612 488 622.4c0 4.1-2.8 8-14.9 21.1-5.1 5.5-9.8 11.1-10.4 12.5-.6 1.4-3.7 5.6-6.8 9.5-12.7 15.6-29.3 42-44.6 71-26.3 49.7-63.5 114.4-71.8 125-1.7 2.2-7.6 10.5-13 18.5-27.8 41.1-38.4 54.1-70.4 86-50.8 50.7-93.2 76.3-135.9 81.9-14.5 2-14.5 2-24.6-.1-41.1-8.3-70.2-44.8-79-99.3-2.7-16.2.5-47.8 7.3-72C37.8 826.6 72.3 779 120 743.8c39.5-29.1 80.7-53.9 120.9-72.8 56.5-26.7 92-39.4 104.7-37.3 2.1.3 4.7-.3 8.4-2.2 3.9-2 6.1-2.5 8.5-2.1 4 .8 5 1.9 7 7.7 4.4 12.5 17.5 28.3 27.6 33.5 7.2 3.6 16.5 3.9 22.9.6 7.5-3.8 10.9-7.4 12.3-12.7 1-4 1.9-5.2 5-7 2.1-1.1 4.9-4 6.3-6.3 2-3.3 4-4.9 9-7.3 11.4-5.4 15.7-13.4 13.4-24.9-1.5-7.5-1.5-7.7 3.6-8.5 6.5-.9 12.8-4.2 14.9-7.7 2.3-4 2.4-11.8.1-15.2-2.6-4-6-5.2-10.1-3.7s-5.5.9-4.8-2c1.6-5.8 22.7-14.3 37-14.8l3.2-.1-5.1 11.2zm217.5 454.4c4.5.8 4.6 1.6.8 4.3-3.9 2.8-4.5 2.7-6.4-1.4-2.1-4.4-2.1-4.8.1-4.1.9.3 3.4.8 5.5 1.2zm-81.8 62.3c2.2 1 4.8 2.7 5.8 3.8 1.7 1.9 1.6 2.2-1.4 8.6-1.7 3.7-3.7 6.7-4.4 6.7-1.8 0-11.1-7.4-13.1-10.4-2.2-3.5-1.5-7.8 1.6-9.3 3.5-1.7 6.8-1.6 11.5.6zm-3.2 25.7c1.4 1.4-7.3 18.4-9.4 18.4-.6 0-2.3-1-3.9-2.2-2.5-1.8-3-2.9-3-6.4 0-3.5.5-4.7 3.5-7.3 2.8-2.4 4.5-3.1 7.9-3.1 2.3 0 4.5.3 4.9.6z"/></svg>