<svg version="1.0" xmlns="http://www.w3.org/2000/svg" width="1256" height="1706.667" viewBox="0 0 942 1360"><path d="M428.3 1.5c-8.6 2.4-16.8 7.1-23.8 13.6-31.2 29.3-42.4 92-27.9 156.6 5 22.4 14.9 46.3 26.2 63.2 10.1 15.3 25.8 30 37.7 35.2l4.8 2.1-.5 6.7c-.3 3.7-2 13-3.9 20.5l-3.4 13.8-6-.6c-3.3-.3-26.7-2.2-52-4.1-49.1-3.8-66.5-5.5-86.7-8.6-13.4-2-33.2-6.8-39.5-9.4-2.1-.9-13.2-3.4-24.8-5.6-25.1-4.8-37.3-7.8-49.8-12.3-12.2-4.4-77.9-34.4-79.3-36.2-.6-.8-4.7-2.6-9-4-9-3-18.4-7.6-23.1-11.2-4.4-3.3-21.7-5.4-45.4-5.6-16.1-.1-17.9.1-19.8 1.8-5 4.6-1.1 8.7 22.4 23.4 9.3 5.9 20.5 13.4 24.8 16.7 11.7 8.9 16.4 11.7 20.1 11.8 4.8.1 6.1-1.3 9.7-10.8 2-5.4 4.2-9.4 6.5-11.6l3.3-3.2 9.8 4.3c5.4 2.4 21.7 9.8 36.3 16.5 42.7 19.7 51.5 22.6 86 29 10.7 2 24.5 5.2 30.5 7 30.9 9.6 51.1 12.3 140.5 19 18.4 1.4 35.6 2.8 38.3 3.2 5.3.6 5.4.9 3.7 10.4-3.9 21.7-6.2 79.2-4.9 122.9 2.9 97.8 16.6 183.3 31.7 197.4l3.1 2.9-.5 12.6c-.2 6.9-.9 30.8-1.4 53.1-4.6 183-13.9 318.8-24.5 355.1-.7 2.5-1.1 5.7-.8 7.1.3 1.8-.1 3-1.4 3.9-3 2.2-5.7 6.8-9.8 16.4-2 4.9-5.7 12.1-8 16-8.3 13.4-9.5 18.6-10.4 44-.7 19.8-.8 20.3-3.9 26.8l-3.1 6.7-17.8.2c-26.3.4-26 .4-75.3-1.1-25-.7-52-1.1-60-.9l-14.5.3 7 1.7c4 1 16.7 2.4 29.5 3.3 60.2 4.1 93.5 6.7 104.2 8.2l11.7 1.6-.6 3c-.5 2.2-.1 3.3 1.2 4.4 2.6 1.8 13 1.7 22.3-.4 4.2-1 9.7-1.7 12.2-1.6 8.3.3 122.8 16.8 123.9 17.8.8.9-19.2.5-51.9-1-132.1-5.9-261.1-9.4-302-8.2-10.7.4-33.1.6-49.7.6-17.2 0-30.3.4-30.3.9s-5.7 1.3-12.8 1.6c-7 .4-14.3 1.1-16.2 1.5l-3.5.7 5 .7c6.3.8 37.3 3 89.5 6.3 27 1.6 43.7 3.1 50 4.4 8.3 1.7 8.8 1.9 3.5 1.5-11.5-.9-24-1.4-22.5-1 .8.2 12.2 1.4 25.3 2.5 37.1 3.2 72 7.9 74 9.9 3.3 3.3-54.9 5.8-241 10.3-28.2.6-51.1 1.4-50.8 1.6.2.2 25 3.3 55.2 6.8l54.8 6.5 37-1.1c20.4-.5 64.2-1.7 97.5-2.5 121.9-3 141.1-3.9 156.5-7 9.1-1.8 12.8-3.2 12.3-4.8-1.2-3.9-18.5-8.7-50.8-14.2-10.7-1.8-18.6-3.4-17.5-3.4 1.1 0 15.7.6 32.5 1.4 16.8.8 49.4 1.9 72.5 2.5 23.1.7 56 2 73 3 29.4 1.7 36.5 1.7 36.5 0 0-2.3-50.7-8.3-89.3-10.6-6.5-.4-11.5-.9-11.3-1.1.2-.2 21.3.3 46.7 1.2 97.5 3.3 155.2 3.6 158.1.7 2-2-15.5-6.1-48.7-11.6-12-2-62-9.2-107.5-15.5l-6.5-.9 6.7-.1c8.9-.1 94.8 2.6 121.3 3.9 11.6.6 50 2.4 85.5 4s73.9 3.5 85.3 4.1c11.5.6 21.1.8 21.4.5.3-.2-1.5-1-3.8-1.6-2.4-.5-5.7-1.5-7.4-2-2.5-.8-2.1-.8 2-.4 2.8.3 29.3.5 59 .6 47 .2 61.8-.3 60.3-1.8-2.8-2.8-84.7-10.3-204.3-18.8-124.1-8.9-297.2-15.4-279.3-10.5 7.7 2.1 67.5 6.4 143.8 10.3 26.7 1.4 61.6 3.3 77.5 4.1 16 .9 45.4 2.5 65.5 3.6 20.1 1 37.6 2.1 39 2.3 5.4.9-107.1-3.1-123-4.4-27.2-2.1-120-7.2-166.5-9-14.3-.5-32.7-1.2-41-1.6l-15-.6.3-9.6c.3-13.7 3-32.3 5.9-41.6 1.4-4.4 5.2-14.2 8.4-21.9 6.6-15.6 8.9-22.6 8.9-27 0-3.9-4.6-8.3-10.4-9.8-4.3-1.1-4.6-1.3-4.6-4.4 0-1.9.9-7.1 2-11.7 7.2-30.8 14.8-122.6 19-229.8 2.5-65.3 3-80.9 4-119 .5-22.3 1.2-46.7 1.5-54.3.5-13.8.6-13.9 3.4-16.3 3.9-3.2 6.8-9.5 8.7-18.4 1.4-7 1.7-7.5 10.4-16.9 18.9-20.3 33.5-41 67.5-95.6 49.2-79 53.9-85.2 92.6-122.1 16.2-15.3 45.6-43.4 65.4-62.4 50.9-48.7 64.2-61 65.8-61 .8 0 1.7.6 2 1.4.4 1.1 1.5 1 5.9-.5 2.9-1 7.2-1.8 9.5-1.9 2.4 0 4.3-.5 4.5-1.3.8-2.1 17.8-2.3 22.2-.2 3.6 1.7 4 1.7 14.4-1 17.9-4.6 40.5-11.1 44.4-12.8 4.3-1.8 6.4-4.9 4.4-6.6-.7-.6-6-2.2-11.7-3.6-12.8-3.1-18.6-5.5-26.5-10.6-12.7-8.2-16.1-7.1-35 11.2-7.9 7.6-15.4 14.1-16.6 14.3-4.5.9-11.8 1.6-11.8 1 0-.2.9-2.3 2-4.4 2.4-4.8 9-8.4 18.2-10.3l6.2-1.3 6.1-13.9c15.9-36.2 29.9-58.3 47.3-74.6l8.7-8.1-7 .5c-14.6 1.2-26.2 2.8-30.7 4.3-10.9 3.6-22.7 13.6-32 27.3-11.6 17.1-22.7 46.6-27.3 72.6-1.1 6.3-3.2 9.5-6.1 9.5-3.7 0-105.7 8.6-129.9 11-11 1.1-28.3 2.4-38.5 3-46.3 2.7-92.6 10.3-138.6 23-8 2.2-14.8 4-15 4-.9 0-.3-3.9 2.1-13.7 1.3-5.6 2.6-12.3 2.8-15l.5-4.8 7.1-.7c13.3-1.4 27.9-10.2 37.6-22.8 38.4-49.9 33.9-154.5-9.2-215.9-6-8.6-20.5-22.7-27.7-27-13.1-7.8-29.7-10.9-41.3-7.6zm25.6 14.4c15.4 5.8 30.5 21.4 43.1 44.3 2.3 4.3 4 7.8 3.7 7.8-.3 0-2.4-.9-4.8-2-18.5-8.3-35.5 11.1-29.5 33.5 6.8 25.7 34.9 32 45.1 10.2l2.2-4.7 1.7 8.7c7.1 38.4 5.6 72.8-4.5 102.1-6.7 19.5-18.5 35.5-31.1 42.2-5.3 2.8-7.6 3.5-14.4 3.8-10.5.6-17.1-1.4-26.7-7.8-25.9-17.3-46-56.8-53.4-105-2.1-14-2.4-46.3-.5-59.3 5.9-40.2 22.5-67.6 45.7-75.4 5.4-1.8 16.6-1 23.4 1.6zm40.3 61.6c10.4 7.1 12 28.2 2.5 33.1-8.6 4.5-19-4.8-20.4-18.1-.7-6.6 1-11.7 4.8-15 3.9-3.2 8.4-3.2 13.1 0zm266.6 209.2c-10.9 10.3-96 91.5-121.5 116-28.6 27.4-36.7 38.4-82.1 111.1-35 55.9-48.5 75.4-64.9 93.7l-5.3 5.9v-6.5c0-17.1-4.6-50.7-19.9-146.4-9-55.8-13.1-94.6-13.1-122.5v-17.7l10.8-3.1c46.7-13.6 98.7-22.6 145.5-25.2 9.5-.5 32.1-2.3 50.2-4 45.4-4.3 98-8.7 103.7-8.9l4.8-.1-8.2 7.7zM451 459.5c2.8 18.1 7.1 45.8 9.6 61.5 8.5 54.3 10.6 74.1 10.2 95.5-.3 14.2-.4 15-2.3 15-2.4 0-3.2-2.3-6.9-18.5-6.2-27.9-11.3-66.3-14.6-111.5-1.2-16.3-3-63.4-2.9-75 .2-10.4.4-9.1 6.9 33z"/><path d="M419.4 81.9c-15.6 7.1-18 33-4.5 48.3 4.2 4.8 12.3 8.8 17.8 8.8 4.9 0 12-3 15.1-6.3 4.9-5.3 6.7-10.7 6.7-20.2 0-7.6-.4-9.9-2.6-14.5-6.9-14.8-20.6-21.5-32.5-16.1zm17.7 13.7c11.4 11.1 7.7 33.8-5.2 32.1-11.5-1.5-18.9-19-13-30.6 3.8-7.3 11.6-7.9 18.2-1.5zM499 203.8c-8.8 16.6-22.3 24.5-36 21.2-7.1-1.7-18.5-9.6-26.4-18.2l-6.5-7.1-2.6 1.7-2.6 1.7 2.9 3.7c1.7 2 5.6 6.2 8.8 9.3 13.6 12.8 25.4 17.7 38 15.7 7.8-1.2 14.5-5 20.9-12 4.8-5.2 13.3-18.4 12.4-19.2-.7-.6-4.8-2.6-5.3-2.6-.3 0-1.9 2.6-3.6 5.8zM195.8 1241.7c.7.3 1.6.2 1.9-.1.4-.3-.2-.6-1.3-.5-1.1 0-1.4.3-.6.6z"/></svg>