<svg version="1.0" xmlns="http://www.w3.org/2000/svg" width="853.333" height="1706.667" viewBox="0 0 640 1280"><path d="M376.9 1.3c-.9.7-2.1 2.1-2.7 3.3-1.5 2.8-3.5 25.5-2.7 30.7.6 4.1-1.1 7.7-49.5 101.9l-50.2 97.6-3.3-1.4c-1.8-.7-6.1-1.8-9.6-2.3-21.8-3.5-43.5 11.2-57.4 38.9-9.4 18.7-15.5 45.1-15.5 67.2 0 4.3-.3 7.8-.7 7.8-1.6 0-14.2-8.1-18.5-12-3.5-3-5.3-5.7-6.9-10.1-1.8-4.9-2.6-5.9-4.2-5.7-1.6.2-2.3 1.5-3.2 5.8-2 9.4-4.2 12.9-9 14.4-1.1.3-5.9 5-10.6 10.3-4.8 5.4-13.5 15-19.4 21.3-5.9 6.3-12.5 13.8-14.6 16.5-3.7 4.9-4.2 5.2-14.6 8.4-21.7 6.6-34.7 13.2-37.8 19-6.5 12.6 6.2 21.8 43 31 16.6 4.1 36.2 8 76.5 15.1 52.8 9.3 71.5 13.2 73.6 15.4 1.5 1.5 5 14.3 6.9 25.1.9 4.9 2 17.5 2.6 28 1.6 30.2.4 58.1-7.6 167.5-2.3 30.8-3.1 76-1.6 89 1.3 11.2 4 20.9 7.1 25.1l1.8 2.6-6 8.4c-3.4 4.6-11.6 16.7-18.3 26.9-66.1 100-92.3 183.9-77.4 247.8 1 4.5 1.9 8.7 1.9 9.2 0 1.6-7.1 1.1-22.2-1.5-12.1-2.1-30.8-6.2-37-8.1-1.3-.4-1.8 0-1.8 1.6 0 4.9-2.4 11-6.1 15.5-4.9 5.9-4.2 7.6 4.4 11.5 6 2.7 6.1 2.8 3.3 3.5-9 2.3 13 4.3 60.7 5.4 20.3.5 37.1 1.2 37.4 1.5.4.3-.4.6-1.6.6-2.8 0-65.2 10.7-70.1 12-3.2.9-3 .9 1.5.5 2.8-.3 39.4-3.6 81.5-7.5 42.1-3.8 78.5-7.2 81-7.5 7.5-.9 62.4-4.5 62.8-4.1.2.2-1.6.7-4 1.1-2.4.3-8.8 1.5-14.3 2.5-6.7 1.2-16.9 2-31 2.4-22.3.6-38.3 1.9-50.5 4.2-4.1.8-17.2 2.3-29 3.4-45.3 4.1-72 7.5-78.5 10-10.4 4 16.5 6.4 81.5 7.6 40.6.6 35.4.1 90.5 9 35.6 5.7 56.8 9.5 58.5 10.4 1.3.8 1.3.9 0 1.4-.8.3-9.4 1.5-19 2.6-25.1 2.9-34.9 4.7-48.8 8.7-13 3.8-18.8 6.8-18.6 9.6.1 1.1-1 2-3.6 2.7-2.1.6-4.3 1.7-5 2.5-1.1 1.3-.8 1.7 1.8 2.7 2.2.9 3 1.7 2.7 2.8-.3.9.5 2.6 1.9 3.9 2.4 2.3 2.6 2.3 28.8 2.1 20.6-.2 27.7.1 32.8 1.3l6.5 1.5-7.5.2c-5.9.2-3.7.5 9.6 1.6 27.5 2.1 43.7 6.1 48.2 11.9 3.8 4.8 3 9-4.8 24.7-3.9 7.7-7 14.1-6.8 14.3.2.1 12.5 1.6 27.3 3.4 14.9 1.8 28.4 3.5 30.1 3.7 2.8.5 3.2.2 5.9-4.8 1.6-2.9 5.7-9.9 9.2-15.5 3.5-5.7 6.3-11.4 6.3-12.8 0-6.4-11.8-14-32.1-20.5-12.2-4-38.9-10.3-48.6-11.6-2.9-.4-5.3-1-5.3-1.3 0-.4 5.1-1.2 11.3-1.9 6.1-.7 15.3-2.2 20.2-3.3 5-1.2 13.5-2.4 19-2.8l10-.6-5-2.1c-8.7-3.8-27.7-6.4-46.3-6.4-5.2 0-9.3-.3-8.9-.6.3-.4 6.5-1.7 13.7-3 16.1-2.8 26.6-5.8 29.2-8.1 1.9-1.7 1.9-1.8-.6-4-5.8-5-38-12.1-94.1-20.8-12.6-2-23.4-3.7-24-3.9-2-.6 55.5-9.1 75.4-11.1 8-.9 14.7-1.9 15-2.3.4-.4 10.7-2.4 23.1-4.5 23.1-3.8 40.5-7.4 49.7-10.3 14.1-4.4 5.8-7.9-21.5-9.1l-14.3-.6 3.2-2.6c3.6-3 4.2-7 1.5-10-.9-1-4-3.1-6.9-4.6-6.2-3.3-9.7-6.3-9.7-8.3 0-1.7-1.4-1.5-19 2.1-17.5 3.6-32.2 5.1-36.5 3.7-7.4-2.4-12.1-11.9-15-29.6-.8-4.9-2.6-21.3-4-36.4-3.2-35-4.1-42.1-7-60.5-9.5-58.7-29-108-59.6-150.4-3.9-5.3-6.7-10.3-6.5-11.1 9.1-28.1 11.9-57.1 12-124.5 0-81.9-6.7-148.6-19.7-193.3-1.3-4.5-2.1-8.2-1.8-8.2.3 0 31.7 54.4 69.8 120.9l69.2 120.8-3.5 8.1c-1.9 4.4-4.2 11.4-5.1 15.6-1.5 7.1-1.5 7.9 0 11.1 1.9 3.9 5.5 5.4 9.3 3.6 2.8-1.2 3.7-3.3 5.2-11.2 2.5-13.6 10.9-29 43.1-78.8 34.2-52.9 49.4-78.8 63.5-108.1 18.5-38.6 30.4-78.2 33.2-110.5.7-8.8 1.3-9.8 11.1-21.1l5.3-6.2-8.1-7.4-8.2-7.3-1.3-9.5c-.8-5.2-2.6-14.1-3.9-19.8-1.4-5.7-2.5-10.8-2.5-11.3s4.1-.9 9.1-.9c10.5 0 10.2-.7 3.5 9.9-2.5 3.9-4.3 7.1-4 7.1.3 0 11.6-4.1 25.1-9.2 20.8-7.8 24.3-9.4 24.1-11-.2-1.4-6.2-4.5-23.5-12.2-12.8-5.7-23.3-10.3-23.3-10.2 0 .1 1.8 4.2 4 9.1 2.2 5 4 9.6 4 10.2 0 1-2.7 1.3-10.4 1.3h-10.4l-3.8-11.3c-11.6-34.9-29-70.3-70.4-142.7-40.4-70.7-54.2-98.4-64.6-129.6-8.6-25.8-11.4-45.7-9.3-66.3l1.2-12.4-2.7-2.4c-3-2.5-6.2-2.9-8.7-1zM375 61.9c7.4 35.9 23 70.4 65.8 145.6 46.3 81.2 61.2 110.6 73.7 145.2 2.5 6.7 4.5 12.7 4.5 13.3 0 .7-33 1-100.2 1H318.5v-24.2c0-19.3-.4-26.1-1.8-33.3-3.9-19.6-10.9-38-19.4-50.7-4.4-6.6-14.3-17.1-18.5-19.6-1.5-.9-2.7-1.9-2.6-2.2 2.7-6.1 96.3-187 96.5-186.4.1.5 1.2 5.6 2.3 11.3zM259.7 241c2.6.6 5.4 1.4 6.2 1.9 1 .7-4.7 12.6-25.5 53L213.6 348h-3.3c-3.8 0-4 .6-1.3 3.5 1.2 1.2 1.6 2.5 1.1 3.3-.6 1.1-2.3.7-7.6-1.7l-6.8-3.1.6-16.3c1.2-32.6 10.8-60.9 26.6-77.9 7.5-8.1 12.3-11.4 20.1-13.9 6.4-2.1 10.1-2.3 16.7-.9zm20.3 12.1c18.4 18.4 29 50.2 29.2 87.4 0 8.8-.3 18.4-.7 21.2l-.7 5.3h-32.1l-9.8-9.5-9.7-9.5-18.4-.2-18.3-.3 26-50.7c22.6-44 26.2-50.5 27.7-49.7 1 .5 4 3.2 6.8 6zM261.4 360l7.1 7h-38.1l-4-4.3c-2.2-2.3-5-5.4-6.3-7l-2.4-2.7h36.5l7.2 7zm-42 2.5c3.3 4 3.5 4.5 1.7 4.5-1.2 0-2.1-.6-2.1-1.5s-1.1-2.7-2.5-4.1c-2.7-2.7-3-3.4-1.6-3.4.5 0 2.5 2 4.5 4.5zm-1.4 9.8c0 .2-2.3 2.3-5.1 4.7-4.9 4.1-5.2 4.3-6.5 2.5-2.3-3.1-1.7-4.1 3.4-5.7 4.5-1.5 8.2-2.2 8.2-1.5zm50 .1c0 .1-2.7 2.5-6.1 5.1l-6.1 4.8-18.4-1.3c-10.1-.7-18.4-1.6-18.4-2 0-.5 1.7-2.2 3.8-3.9l3.7-3 20.8-.1c11.4 0 20.7.2 20.7.4zm39 .3c-.1 2.4-5 19.6-5.9 20.7-.8.9-6.5 1.5-21.3 2-11.2.4-20.7 1.1-21.2 1.6s-.6 1.6-.2 2.5c.5 1.5 2.5 1.6 19.3 1 10.4-.4 19.4-.8 20.1-1.1 1.9-.6.8 2.5-4.2 12-10.4 19.9-26 31.8-41.5 31.5-10.1-.2-8.9 1.2-26.7-29.9-11.4-20-15.9-28.6-14.9-28.8.8-.2 9.9.4 20.3 1.2 28.5 2.4 25.8 2.8 36.5-5.9l9.2-7.4 15.3-.1c8.3 0 15.2.3 15.2.7zm216.7 8.8c2.8 11.4 6 30.4 6.8 41.5.6 7.5.4 8.8-1.2 10.2-1 .9-8.1 5.1-15.8 9.3-7.7 4.3-16.1 9.1-18.7 10.7-5.2 3.3-7.6 4.1-20.3 6.8-34.7 7.4-66.7 10.3-131 11.9-22 .6-49.7 1.3-61.5 1.7l-21.5.5-3.7-6.4c-2.1-3.6-4-8.3-4.4-10.5l-.6-3.9 4.9-.6c26.4-3.1 48-29.2 57.9-70l2.7-10.7 102 .2 102.1.3 2.3 9zm-332.3 4.7c7.2 28.5 23.1 52.4 40.9 61.4l4.7 2.4v6.6c0 6.4-.1 6.6-2.2 6-6.1-1.7-39.7-8.1-68.3-13.1-54.7-9.6-82-15.6-97.3-21.5-7.8-3-15.2-7.4-15.2-8.9 0-1.6 5.7-5.8 11.2-8.4 10.8-5 27.4-9.7 71.3-20 43.3-10.2 48.2-11.3 51.5-11.6 1.1-.1 2.1 2 3.4 7.1zm41.6 50.5c0 .3-2.3-1.4-5.1-3.8-9.8-8.2-20-25.6-25.3-43-1.4-4.7-2.6-9.2-2.6-10 0-.7 7.4 11.6 16.5 27.5s16.5 29.1 16.5 29.3zm254.9 31.9c4 2 22.9 3.6 32.5 2.7l6.9-.6-.7 4.9c-1.7 13-9.3 38.4-17.9 59.4-15.1 37.5-30.8 65.3-75.2 134-9.4 14.6-20.4 32-24.5 38.8-4 6.8-7.6 11.9-8 11.5-1.3-1.4-135.1-235.6-134.8-235.8.2-.2 23.5-.8 51.8-1.4 69.7-1.6 91.3-2.8 124.8-7.2 14.1-1.8 40.2-6.6 41.1-7.5.6-.5.4-.6 4 1.2zM265.9 639c2.5 54.7.3 115-5.4 147.5-.9 4.9-2 9.4-2.4 9.8-.4.4-1.4-2-2.2-5.5-2.5-11.2-1.8-66.4 1.5-110.3 2.5-35.2 5.4-75.1 5.7-80.5.3-4.7 1.8 15.5 2.8 39zm2.3 187.4c33.9 47.7 52.7 99.8 61.2 169.6.9 6.9 2.7 24.8 4.1 39.9 3.9 41 6.2 52.1 13 61.7 1.9 2.7 3.5 5.3 3.5 5.8 0 .4 2.6 3.6 5.7 7l5.7 6.1-4 .2c-2.1.1-30.7.7-63.4 1.3-32.7.6-78.4 1.8-101.5 2.5-23.1.8-42.7 1.5-43.5 1.5-.8 0-.1-.9 1.6-1.9 1.7-1 4-3.2 5.2-4.7 1.2-1.6 2.7-3.5 3.3-4.2.8-1 .4-4.3-1.6-13-3.7-16.4-3.5-15.3-4.5-27.2-1.1-12.2 0-33.3 2.5-47.5 9.6-55.5 39.7-118.8 92.3-194.3 11-15.7 11.2-15.7 20.4-2.8zM231.3 1127c-2.4 1.1-4.3 2.3-4.3 2.8s2.8 1.4 6.3 1.9c5.1.8 2.1 1-16.8 1-12.6.1-22.1-.2-21-.5 3-.8 36.8-6.9 38.5-7 .8 0-.4.8-2.7 1.8z"/><path d="M271.2 299.6c-8.5 4.2-13 14.4-10.2 22.9 1.4 4.3 6.2 10 9.9 11.9 10.9 5.6 24.6-.5 27.6-12.2 2.7-10.3-1.9-19.5-11.7-23.6-5.3-2.3-9.7-2-15.6 1zm15 10.3c8.6 7.6-1.2 21.4-11 15.5-8.9-5.2-5.3-18.2 5-18.4 1.7 0 4.1 1.2 6 2.9z"/></svg>