<svg version="1.0" xmlns="http://www.w3.org/2000/svg" width="1706.667" height="853.333" viewBox="0 0 1280 640" fill="#333333"><path d="M263 224.6c-10.9 4.7-14.7 17.2-9 30 1.9 4.3 3.9 6.2 15.7 14.4 7.2 5 18 16.4 23.4 24.9 1.5 2.4 3.3 6.7 3.9 9.5 4.8 23.4 22.5 10.7 22.2-16-.3-26.2-17.7-56.5-36.1-62.9-5.6-1.9-15.5-1.9-20.1.1zM925.5 226.4c-11 2.9-18.8 7.7-29.9 18.5-17.9 17.4-27.6 39.1-24.8 55.9 1.3 7.5 3.2 10.9 6.8 11.8 4.4 1.1 9-1.9 12.5-8.1 3.8-6.8 9.4-11.8 21.2-18.9 9.4-5.6 14.7-7.9 27.3-11.5 8.8-2.6 13-5.4 17.1-11.4 7-10.5 6.6-21.5-1.2-29.3-6.7-6.7-19-9.7-29-7z"/><path d="M416.3 241.4c-19.5 4.5-33.1 17.7-36.3 35.5-1.9 10.4.9 19.8 8.1 27.6 8.2 8.9 15.7 11.5 36.9 12.5 13.8.6 17.8 1.2 24.3 3.4 19.2 6.5 29.9 19 30.1 35.2.1 15.6-10.8 28.4-29.8 34.8-14.5 4.9-45.2 10.4-64.6 11.6-23 1.3-34.4-.3-64.7-9.3-21.8-6.5-26.4-7-61.3-7.3-27.9-.2-32.7-.4-42-2.4-19.8-4.1-32.7-10.1-46.8-21.9-43.9-36.7-76.4-50.7-103.3-44.7C48.7 320.5 39 331 39 346.5c.1 9.5 5.3 16.6 14.7 19.9 2.3.8 9 2.2 15 3.1 11.7 1.9 17.4 4.1 19.9 8 3.6 5.4-.5 13.3-9.1 17.7-3.1 1.6-7.1 2.3-17.5 3-25 1.6-50.4 8.7-60 16.7l-2.5 2 639.4.1c351.7 0 639.2-.2 639-.4-.2-.2-6.7-2-14.4-4.1-19-4.9-28.7-8.4-50.5-17.8-40.3-17.3-49.6-20.5-67.6-22.8-15.6-1.9-30.5 0-48.4 6.3-4.9 1.7-10.7 3-13.6 3-8.9.1-16.2-5.1-18.4-13.1-2.9-10.7 5.5-19.5 21.1-22.1 3.5-.6 11.9-1.9 18.7-3 19.5-3.2 29.8-8.1 35.2-16.7 3.6-5.6 4.7-9.2 6-19.3 2.6-19.3-5.6-33.4-25.1-43.5-25.2-13-55.8-13-89.3.2-28.3 11.1-57.3 29.5-94.4 60.1-10.3 8.4-22.2 18-26.4 21.3-29.2 22.5-62.9 38.3-97.3 45.6-11.3 2.3-15.3 2.7-30.5 2.8-20.9 0-21.3-.1-44.5-11.9-20.6-10.6-28.6-12.7-51-13.3-12.4-.4-20.8 0-37 1.7-42.7 4.6-66 .9-88.6-13.9-16.8-11.1-25.4-21-50-57.7-24.5-36.5-36-47.8-55.8-54.7-7.4-2.6-10.3-3.1-21.1-3.3-8.3-.3-14.6.1-18.7 1z"/><path d="M808.5 244.2C800.8 247 793 255 787.4 266c-2.2 4.3-2.8 6.9-2.8 12 0 8.1 1.5 11.2 5.2 10.8 2-.2 3.3-1.4 5-4.5 3.1-5.6 11.4-12 20.4-15.9 8.5-3.6 11.8-7.4 11.8-13.6 0-5.4-1.4-7.6-6.3-9.9-4.7-2.1-7.8-2.3-12.2-.7zM565.5 247.1c-10.5 6-14.8 11.9-17.2 23.5-1.3 6.4-1.4 9.1-.4 15.8 3.5 25.2 17.1 48 33.2 55.6 10 4.7 15.9 3.8 17.5-2.7.5-1.9-.3-4.5-3-9.7-2-4-4.1-9.8-4.6-13.1-1.7-10.2-1.2-25.6 1.1-35.8 1.2-5.3 1.9-11.2 1.6-13.9-.5-5.8-4.6-12.9-10-17.2-3.1-2.5-4.8-3.1-10-3.3-3.4-.2-7.1.2-8.2.8zM33.5 251.9c-10.4 5.4-11.4 17.4-1.8 23.6 2.3 1.5 5.1 1.9 16.8 2 14.2.2 20.6 1.5 24.5 5 .8.7 2.7 1.8 4.3 2.4 2.3.9 3.1.7 4.8-1 2.5-2.5 2-6-2-13.3-3.2-6-10.1-11.7-20-16.4-9.6-4.6-20.3-5.5-26.6-2.3zM1225.2 255.5c-13.8 5.3-24 16.1-23 24.4.6 4.6 3 4.8 10.4 1 6.7-3.4 6.9-3.4 20.3-3.4 14.5-.1 16.4-.6 20-5.1 4.4-5.6 1.5-14.1-6-17.9-4.3-2.3-14.3-1.8-21.7 1zM157.2 255.8c-6.1 2.2-8.7 4.4-11.3 9.4-2.3 4.6-2.4 9.9-.3 16.3 2.4 6.9 7.4 11.4 17.4 15.5 14.6 6 30.1 19.2 35.5 30.3 3.7 7.7 7.1 10 11.2 7.7 3.5-2 5.2-5.5 6.6-13.6 2.7-15.9-6.3-37.4-22.6-53.7-11.7-11.7-24.8-16-36.5-11.9zM692.8 273c-25.2 4.6-50.7 21.1-59 38.2-5.6 11.4-5.7 18.9-.4 22.3 3.3 2.2 7.2 1.3 12.7-2.7 11.8-8.5 30.9-11.7 54.1-9l13.8 1.6 6.7-3.5c14.8-7.5 19.3-21.8 10.6-33.6-6.5-8.8-14.8-13.1-26.6-13.8-4-.2-9.3 0-11.9.5zM1195.6 319.2c-9.2 2.5-24.9 22.4-23.2 29.3 1.2 4.9 10.9 5.9 23.4 2.5 15.7-4.4 21.2-9.1 21.2-18.2 0-9.7-10.7-16.5-21.4-13.6zM793 325.6c-13.2 4.7-31.3 26.7-32.7 39.8-.6 5.3 1.5 7.9 7.7 9.6 12.4 3.3 45.7-7.3 52.6-16.7 5.4-7.5 5.8-17.2 1-24.1-5.6-8.2-18.8-12.1-28.6-8.6zM252.3 328.5c-4.6 2-6.7 5.7-6 10.6.8 6.1 3.1 8.7 11 12.3 8.3 3.8 16.6 10.2 18.7 14.3 3.7 7.4 7.2 8.4 9.7 2.6 5.9-14.2-12-41.3-27.2-41.2-1.6 0-4.4.6-6.2 1.4zM371 332.9c-8.5 3-15 11.5-15 19.6 0 8.1 6.5 16.7 16 20.9 15.6 7 40.4 9.7 46.7 5 2.5-1.9 2.8-2.8 2.8-7.6 0-7.2-4.3-14.4-15.2-25.5-12.6-12.9-23.4-16.6-35.3-12.4zM1246.4 358.8c-6.3.5-16.3 6-18.8 10.4-1.9 3.4-2 3.9-.5 5.3 1.2 1.3 2.1 1.3 4.8.4 4.3-1.5 14.1-.5 21 2.1 5.1 2 5.4 2 9 .3 2-1 4.2-3.1 4.9-4.6 1.2-2.4 1.1-3.3-.5-6.5-2.9-5.9-9.1-8.2-19.9-7.4zM15.4 367.4c-3.7 3.1-3.8 8.4-.5 12 5.3 5.7 22.8 8.5 24.5 4 1.4-3.5-5.7-14-11.5-17-4.3-2.2-9.4-1.8-12.5 1z"/></svg>